  Duration: 00:00:06.04, start: 0.000000, bitrate: 17927 kb/s
  Stream #0:0[0x1](und): Video: hevc (Main 10) (hvc1 / 0x31637668), yuv420p10le(tv, bt2020nc/bt2020/arib-std-b67), 1920x1080, 17743 kb/s, 59.93 fps, 59.94 tbr, 19200 tbn (default)
  Stream #0:1[0x2](und): Audio: aac (LC) (mp4a / 0x6134706D), 44100 Hz, stereo, fltp, 167 kb/s (default)
